<?xml version="1.0" encoding="UTF-8" standalone="no"?>
<!-- Created with Inkscape (http://www.inkscape.org/) -->

<svg
   xmlns:dc="http://purl.org/dc/elements/1.1/"
   xmlns:cc="http://creativecommons.org/ns#"
   xmlns:rdf="http://www.w3.org/1999/02/22-rdf-syntax-ns#"
   xmlns:svg="http://www.w3.org/2000/svg"
   xmlns="http://www.w3.org/2000/svg"
   xmlns:sodipodi="http://sodipodi.sourceforge.net/DTD/sodipodi-0.dtd"
   xmlns:inkscape="http://www.inkscape.org/namespaces/inkscape"
   width="744.09448819"
   height="1052.3622047"
   id="svg2"
   version="1.1"
   inkscape:version="0.48.4 r9939"
   inkscape:export-filename="minke.png"
   inkscape:export-xdpi="342.09"
   inkscape:export-ydpi="342.09"
   sodipodi:docname="New document 1">
  <defs
     id="defs4" />
  <sodipodi:namedview
     id="base"
     pagecolor="#ffffff"
     bordercolor="#666666"
     borderopacity="1.0"
     inkscape:pageopacity="0.0"
     inkscape:pageshadow="2"
     inkscape:zoom="1.4"
     inkscape:cx="452.35078"
     inkscape:cy="539.71674"
     inkscape:document-units="px"
     inkscape:current-layer="layer1"
     showgrid="false"
     showguides="true"
     inkscape:guide-bbox="true"
     inkscape:window-width="1680"
     inkscape:window-height="1026"
     inkscape:window-x="0"
     inkscape:window-y="24"
     inkscape:window-maximized="1" />
  <metadata
     id="metadata7">
    <rdf:RDF>
      <cc:Work
         rdf:about="">
        <dc:format>image/svg+xml</dc:format>
        <dc:type
           rdf:resource="http://purl.org/dc/dcmitype/StillImage" />
        <dc:title></dc:title>
      </cc:Work>
    </rdf:RDF>
  </metadata>
  <g
     inkscape:label="Layer 1"
     inkscape:groupmode="layer"
     id="layer1">
    <path
       style="fill:#3c5250;stroke:none;stroke-width:1px;stroke-linecap:butt;stroke-linejoin:miter;stroke-opacity:1;fill-opacity:1"
       d="M 52.857143,490.21932 C 55.060547,488.77384 98.300227,469.36618 115,461.6479 c 16.69977,-7.71828 18.90509,-1.91143 32.14286,-9.28572 13.23777,-7.37429 9.21355,-4.17401 32.14286,-13.57143 22.92931,-9.39742 55.54397,-17.15122 90.35714,-23.21428 34.81316,-6.06307 74.34171,-9.37771 116.42857,-11.42857 42.08685,-2.05087 125,7.85714 125,7.85714 0,0 41.80748,8.45401 67.85714,14.64286 26.04966,6.18885 50.77035,20.49602 67.85715,33.57142 17.0868,13.0754 28.54294,30.52967 33.21428,39.64286 4.67134,9.11319 3.36474,5.39124 2.14286,9.28572 -1.22189,3.89448 -0.13681,4.49756 -10.35714,7.85714 -10.22033,3.35959 -47.85715,-2.85714 -47.85715,-2.85714 0,0 -41.72416,-7.77918 -64.28571,-9.28572 -22.56155,-1.50654 -23.32606,-4.43297 -70.71429,0.71429 -47.38823,5.14726 -67.64252,6.89673 -106.07143,12.85714 -38.42891,5.96041 -122.14285,2.85714 -122.14285,2.85714 l -125,-8.92857 c 0,0 -42.64859,-4.28961 -61.071433,-5 -18.422843,-0.71039 -25.37293,-4.11272 -26.071428,-9.64286 -0.698498,-5.53014 4.6137,-1.67816 4.642857,-3.21428 0.02916,-1.53612 -2.819897,-0.99945 -2.857143,-2.14286 -0.03725,-1.14341 0.296596,-0.69738 2.5,-2.14286 z"
       id="path3001"
       inkscape:connector-curvature="0"
       sodipodi:nodetypes="zzzzzzczzzzzczzzcczzzzz" />
    <path
       style="fill:#3c5250;fill-opacity:1;stroke:none"
       d="m 503.05597,412.91532 c 0,0 4.92022,3.56996 16.66751,-3.03046 11.25549,-7.27247 21.96676,-13.84526 36.87057,-14.64721 3.33937,-0.0279 6.4908,1.0151 3.03046,3.03045 -3.46034,2.01535 -10.94649,-0.65031 -11.61676,10.10153 -0.67027,10.75184 10.35407,15.78363 10.35407,15.78363 z"
       id="path3003"
       inkscape:connector-curvature="0"
       sodipodi:nodetypes="ccczzcc" />
    <path
       style="fill:none;stroke:#000000;stroke-width:1px;stroke-linecap:butt;stroke-linejoin:miter;stroke-opacity:1"
       d="m 52.780471,494.50544 c 0,0 82.586569,-19.64621 92.934029,-18.94036 10.34746,0.70585 23.99113,12.12183 23.99113,12.12183"
       id="path3005"
       inkscape:connector-curvature="0"
       sodipodi:nodetypes="czc" />
    <path
       style="fill:none;stroke:#000000;stroke-width:1px;stroke-linecap:butt;stroke-linejoin:miter;stroke-opacity:0.39269406"
       d="m 56.568543,499.5562 c 0,0 8.977122,6.77623 39.230121,-3.66782 30.252996,-10.44405 34.103306,-15.07268 44.385386,-12.52525 10.28208,2.54742 24.28571,9.585 36.08757,12.405 11.80186,2.82 36.87057,4.79822 36.87057,4.79822"
       id="path3007"
       inkscape:connector-curvature="0"
       sodipodi:nodetypes="czzzc" />
    <path
       style="fill:#3c444b;stroke:none;stroke-width:1px;stroke-linecap:butt;stroke-linejoin:miter;stroke-opacity:1;fill-opacity:1"
       d="m 217.5,503.79075 c 0,0 52.91294,59.38888 56.42857,50 3.51563,-9.38888 -24.64286,-52.5 -24.64286,-52.5 z"
       id="path3009"
       inkscape:connector-curvature="0"
       sodipodi:nodetypes="czcc" />
    <path
       style="fill:#3c444b;fill-opacity:1;stroke:none"
       d="m 656.79097,502.48473 c 0,0 18.41466,25.6309 38.75,38.39286 20.33534,12.76196 51.68684,24.28571 41.07143,17.32142 -10.61541,-6.96429 -18.06336,-31.42712 -23.92857,-34.10714 -5.86521,-2.68002 21.21613,-6.78372 18.39285,-10.17857 -2.82328,-3.39485 -49.82142,-9.10714 -49.82142,-9.10714 0,0 -0.26374,-0.42901 -2.32143,5.89285 -2.05769,6.32186 -22.14286,-8.21428 -22.14286,-8.21428 z"
       id="path3011"
       inkscape:connector-curvature="0"
       sodipodi:nodetypes="czzzzczc" />
    <path
       sodipodi:type="arc"
       style="fill:#000000;fill-opacity:1;stroke:none"
       id="path3783"
       sodipodi:cx="132.08694"
       sodipodi:cy="404.32648"
       sodipodi:rx="7.8012352"
       sodipodi:ry="4.8214288"
       d="m 139.88818,404.32648 a 7.8012352,4.8214288 0 1 1 -15.60247,0 7.8012352,4.8214288 0 1 1 15.60247,0 z"
       transform="matrix(0.51851854,0,0,0.51851854,103.41269,270.9257)" />
    <path
       style="fill:none;stroke:#000000;stroke-width:1px;stroke-linecap:butt;stroke-linejoin:miter;stroke-opacity:0.3242009"
       d="m 119.95561,487.43437 c 0,0 26.91564,13.31634 44.44672,17.42512 17.53107,4.10878 43.94163,3.53555 43.94163,3.53555"
       id="path3785"
       inkscape:connector-curvature="0"
       sodipodi:nodetypes="czc" />
    <path
       style="fill:none;stroke:#000000;stroke-width:1px;stroke-linecap:butt;stroke-linejoin:miter;stroke-opacity:0.3242009"
       d="m 111.36932,490.32492 c 0,0 26.91564,13.31634 44.44672,17.42512 17.53107,4.10878 43.94163,3.53555 43.94163,3.53555"
       id="path3785-4"
       inkscape:connector-curvature="0"
       sodipodi:nodetypes="czc" />
    <path
       style="fill:none;stroke:#000000;stroke-width:1px;stroke-linecap:butt;stroke-linejoin:miter;stroke-opacity:0.3242009"
       d="m 105.3084,493.35537 c 0,0 26.91564,13.31634 44.44672,17.42512 17.53107,4.10878 43.94163,3.53555 43.94163,3.53555"
       id="path3785-0"
       inkscape:connector-curvature="0"
       sodipodi:nodetypes="czc" />
    <path
       style="fill:none;stroke:#000000;stroke-width:1px;stroke-linecap:butt;stroke-linejoin:miter;stroke-opacity:0.3242009"
       d="m 128.90485,483.29446 c 0,0 26.91564,13.31634 44.44672,17.42512 17.53107,4.10878 43.94163,3.53555 43.94163,3.53555"
       id="path3785-7"
       inkscape:connector-curvature="0"
       sodipodi:nodetypes="czc" />
  </g>
</svg>
